<svg xmlns="http://www.w3.org/2000/svg" xmlns:xlink="http://www.w3.org/1999/xlink" width="100" zoomAndPan="magnify" viewBox="0 0 75 74.999997" height="100" preserveAspectRatio="xMidYMid meet" version="1.0"><defs><clipPath id="71752c7e1b"><path d="M 8.503906 10.34375 L 66.25 10.34375 L 66.25 64.34375 L 8.503906 64.34375 Z M 8.503906 10.34375 " clip-rule="nonzero"/></clipPath><clipPath id="b072ddbaef"><path d="M 12.253906 10.34375 L 62.746094 10.34375 C 64.816406 10.34375 66.496094 12.023438 66.496094 14.09375 L 66.496094 60.902344 C 66.496094 62.972656 64.816406 64.648438 62.746094 64.648438 L 12.253906 64.648438 C 10.179688 64.648438 8.503906 62.972656 8.503906 60.902344 L 8.503906 14.09375 C 8.503906 12.023438 10.179688 10.34375 12.253906 10.34375 Z M 12.253906 10.34375 " clip-rule="nonzero"/></clipPath><clipPath id="49813cb2d1"><path d="M 47.476562 16.875 L 57.507812 16.875 L 57.507812 26.90625 L 47.476562 26.90625 Z M 47.476562 16.875 " clip-rule="nonzero"/></clipPath><clipPath id="a69b879ab0"><path d="M 52.492188 16.875 C 49.722656 16.875 47.476562 19.121094 47.476562 21.890625 C 47.476562 24.660156 49.722656 26.90625 52.492188 26.90625 C 55.261719 26.90625 57.507812 24.660156 57.507812 21.890625 C 57.507812 19.121094 55.261719 16.875 52.492188 16.875 Z M 52.492188 16.875 " clip-rule="nonzero"/></clipPath><clipPath id="85b345d6e9"><path d="M 47.476562 32.484375 L 57.507812 32.484375 L 57.507812 42.515625 L 47.476562 42.515625 Z M 47.476562 32.484375 " clip-rule="nonzero"/></clipPath><clipPath id="33af5de7e6"><path d="M 52.492188 32.484375 C 49.722656 32.484375 47.476562 34.730469 47.476562 37.5 C 47.476562 40.269531 49.722656 42.515625 52.492188 42.515625 C 55.261719 42.515625 57.507812 40.269531 57.507812 37.5 C 57.507812 34.730469 55.261719 32.484375 52.492188 32.484375 Z M 52.492188 32.484375 " clip-rule="nonzero"/></clipPath><clipPath id="eed0e9af96"><path d="M 15.371094 16.875 L 25.398438 16.875 L 25.398438 26.90625 L 15.371094 26.90625 Z M 15.371094 16.875 " clip-rule="nonzero"/></clipPath><clipPath id="9819d9636c"><path d="M 20.382812 16.875 C 17.613281 16.875 15.371094 19.121094 15.371094 21.890625 C 15.371094 24.660156 17.613281 26.90625 20.382812 26.90625 C 23.152344 26.90625 25.398438 24.660156 25.398438 21.890625 C 25.398438 19.121094 23.152344 16.875 20.382812 16.875 Z M 20.382812 16.875 " clip-rule="nonzero"/></clipPath><clipPath id="72bfebbdf1"><path d="M 47.476562 47.4375 L 57.507812 47.4375 L 57.507812 57.464844 L 47.476562 57.464844 Z M 47.476562 47.4375 " clip-rule="nonzero"/></clipPath><clipPath id="c30df0e33c"><path d="M 52.492188 47.4375 C 49.722656 47.4375 47.476562 49.679688 47.476562 52.449219 C 47.476562 55.21875 49.722656 57.464844 52.492188 57.464844 C 55.261719 57.464844 57.507812 55.21875 57.507812 52.449219 C 57.507812 49.679688 55.261719 47.4375 52.492188 47.4375 Z M 52.492188 47.4375 " clip-rule="nonzero"/></clipPath><clipPath id="54eb01a81b"><path d="M 15.371094 47.4375 L 25.398438 47.4375 L 25.398438 57.464844 L 15.371094 57.464844 Z M 15.371094 47.4375 " clip-rule="nonzero"/></clipPath><clipPath id="fb9eafe409"><path d="M 20.382812 47.4375 C 17.613281 47.4375 15.371094 49.679688 15.371094 52.449219 C 15.371094 55.21875 17.613281 57.464844 20.382812 57.464844 C 23.152344 57.464844 25.398438 55.21875 25.398438 52.449219 C 25.398438 49.679688 23.152344 47.4375 20.382812 47.4375 Z M 20.382812 47.4375 " clip-rule="nonzero"/></clipPath><clipPath id="08f25c4c4a"><path d="M 15.371094 32.484375 L 25.398438 32.484375 L 25.398438 42.515625 L 15.371094 42.515625 Z M 15.371094 32.484375 " clip-rule="nonzero"/></clipPath><clipPath id="e5a68047a2"><path d="M 20.382812 32.484375 C 17.613281 32.484375 15.371094 34.730469 15.371094 37.5 C 15.371094 40.269531 17.613281 42.515625 20.382812 42.515625 C 23.152344 42.515625 25.398438 40.269531 25.398438 37.5 C 25.398438 34.730469 23.152344 32.484375 20.382812 32.484375 Z M 20.382812 32.484375 " clip-rule="nonzero"/></clipPath></defs><rect x="-7.5" width="90" fill="#ffffff" y="-7.5" height="89.999996" fill-opacity="1"/><rect x="-7.5" width="90" fill="#ffffff" y="-7.5" height="89.999996" fill-opacity="1"/><g clip-path="url(#71752c7e1b)"><g clip-path="url(#b072ddbaef)"><path stroke-linecap="butt" transform="matrix(0.75, 0, 0, 0.75, 8.502683, 10.345604)" fill="none" stroke-linejoin="miter" d="M 5.001632 -0.00247135 L 72.324549 -0.00247135 C 75.084966 -0.00247135 77.32455 2.237112 77.32455 4.997529 L 77.32455 67.408988 C 77.32455 70.169405 75.084966 72.40378 72.324549 72.40378 L 5.001632 72.40378 C 2.236007 72.40378 0.00163147 70.169405 0.00163147 67.408988 L 0.00163147 4.997529 C 0.00163147 2.237112 2.236007 -0.00247135 5.001632 -0.00247135 Z M 5.001632 -0.00247135 " stroke="#6e15a8" stroke-width="2" stroke-opacity="1" stroke-miterlimit="4"/></g></g><g clip-path="url(#49813cb2d1)"><g clip-path="url(#a69b879ab0)"><path fill="#6e15a8" d="M 47.476562 16.875 L 57.507812 16.875 L 57.507812 26.90625 L 47.476562 26.90625 Z M 47.476562 16.875 " fill-opacity="1" fill-rule="nonzero"/></g></g><g clip-path="url(#85b345d6e9)"><g clip-path="url(#33af5de7e6)"><path fill="#6e15a8" d="M 47.476562 32.484375 L 57.507812 32.484375 L 57.507812 42.515625 L 47.476562 42.515625 Z M 47.476562 32.484375 " fill-opacity="1" fill-rule="nonzero"/></g></g><g clip-path="url(#eed0e9af96)"><g clip-path="url(#9819d9636c)"><path fill="#6e15a8" d="M 15.371094 16.875 L 25.398438 16.875 L 25.398438 26.90625 L 15.371094 26.90625 Z M 15.371094 16.875 " fill-opacity="1" fill-rule="nonzero"/></g></g><g clip-path="url(#72bfebbdf1)"><g clip-path="url(#c30df0e33c)"><path fill="#6e15a8" d="M 47.476562 47.4375 L 57.507812 47.4375 L 57.507812 57.464844 L 47.476562 57.464844 Z M 47.476562 47.4375 " fill-opacity="1" fill-rule="nonzero"/></g></g><g clip-path="url(#54eb01a81b)"><g clip-path="url(#fb9eafe409)"><path fill="#6e15a8" d="M 15.371094 47.4375 L 25.398438 47.4375 L 25.398438 57.464844 L 15.371094 57.464844 Z M 15.371094 47.4375 " fill-opacity="1" fill-rule="nonzero"/></g></g><g clip-path="url(#08f25c4c4a)"><g clip-path="url(#e5a68047a2)"><path fill="#6e15a8" d="M 15.371094 32.484375 L 25.398438 32.484375 L 25.398438 42.515625 L 15.371094 42.515625 Z M 15.371094 32.484375 " fill-opacity="1" fill-rule="nonzero"/></g></g></svg>