<svg xmlns="http://www.w3.org/2000/svg" xmlns:xlink="http://www.w3.org/1999/xlink" width="100" zoomAndPan="magnify" viewBox="0 0 75 74.999997" height="100" preserveAspectRatio="xMidYMid meet" version="1.0"><defs><clipPath id="71e51503d8"><path d="M 8.503906 10.34375 L 66.25 10.34375 L 66.25 64.34375 L 8.503906 64.34375 Z M 8.503906 10.34375 " clip-rule="nonzero"/></clipPath><clipPath id="3aede6febb"><path d="M 12.253906 10.34375 L 62.746094 10.34375 C 64.816406 10.34375 66.496094 12.023438 66.496094 14.09375 L 66.496094 60.902344 C 66.496094 62.972656 64.816406 64.648438 62.746094 64.648438 L 12.253906 64.648438 C 10.179688 64.648438 8.503906 62.972656 8.503906 60.902344 L 8.503906 14.09375 C 8.503906 12.023438 10.179688 10.34375 12.253906 10.34375 Z M 12.253906 10.34375 " clip-rule="nonzero"/></clipPath><clipPath id="66f2c78ace"><path d="M 32.484375 32.484375 L 42.515625 32.484375 L 42.515625 42.515625 L 32.484375 42.515625 Z M 32.484375 32.484375 " clip-rule="nonzero"/></clipPath><clipPath id="bfb200d507"><path d="M 37.5 32.484375 C 34.730469 32.484375 32.484375 34.730469 32.484375 37.5 C 32.484375 40.269531 34.730469 42.515625 37.5 42.515625 C 40.269531 42.515625 42.515625 40.269531 42.515625 37.5 C 42.515625 34.730469 40.269531 32.484375 37.5 32.484375 Z M 37.5 32.484375 " clip-rule="nonzero"/></clipPath></defs><rect x="-7.5" width="90" fill="#ffffff" y="-7.5" height="89.999996" fill-opacity="1"/><rect x="-7.5" width="90" fill="#ffffff" y="-7.5" height="89.999996" fill-opacity="1"/><g clip-path="url(#71e51503d8)"><g clip-path="url(#3aede6febb)"><path stroke-linecap="butt" transform="matrix(0.75, 0, 0, 0.75, 8.502683, 10.345589)" fill="none" stroke-linejoin="miter" d="M 5.001632 -0.00245183 L 72.324549 -0.00245183 C 75.084966 -0.00245183 77.32455 2.237132 77.32455 4.997548 L 77.32455 67.409008 C 77.32455 70.169424 75.084966 72.403799 72.324549 72.403799 L 5.001632 72.403799 C 2.236007 72.403799 0.00163147 70.169424 0.00163147 67.409008 L 0.00163147 4.997548 C 0.00163147 2.237132 2.236007 -0.00245183 5.001632 -0.00245183 Z M 5.001632 -0.00245183 " stroke="#6e15a8" stroke-width="2" stroke-opacity="1" stroke-miterlimit="4"/></g></g><g clip-path="url(#66f2c78ace)"><g clip-path="url(#bfb200d507)"><path fill="#6e15a8" d="M 32.484375 32.484375 L 42.515625 32.484375 L 42.515625 42.515625 L 32.484375 42.515625 Z M 32.484375 32.484375 " fill-opacity="1" fill-rule="nonzero"/></g></g></svg>