<svg xmlns="http://www.w3.org/2000/svg" xmlns:xlink="http://www.w3.org/1999/xlink" width="100" zoomAndPan="magnify" viewBox="0 0 75 74.999997" height="100" preserveAspectRatio="xMidYMid meet" version="1.0"><defs><clipPath id="a2932769d0"><path d="M 8.503906 10.34375 L 66.25 10.34375 L 66.25 64.34375 L 8.503906 64.34375 Z M 8.503906 10.34375 " clip-rule="nonzero"/></clipPath><clipPath id="ee67bd7b25"><path d="M 12.253906 10.34375 L 62.746094 10.34375 C 64.816406 10.34375 66.496094 12.023438 66.496094 14.09375 L 66.496094 60.902344 C 66.496094 62.972656 64.816406 64.648438 62.746094 64.648438 L 12.253906 64.648438 C 10.179688 64.648438 8.503906 62.972656 8.503906 60.902344 L 8.503906 14.09375 C 8.503906 12.023438 10.179688 10.34375 12.253906 10.34375 Z M 12.253906 10.34375 " clip-rule="nonzero"/></clipPath><clipPath id="647703c7a2"><path d="M 47.476562 16.875 L 57.507812 16.875 L 57.507812 26.90625 L 47.476562 26.90625 Z M 47.476562 16.875 " clip-rule="nonzero"/></clipPath><clipPath id="ebbc42bccc"><path d="M 52.492188 16.875 C 49.722656 16.875 47.476562 19.121094 47.476562 21.890625 C 47.476562 24.660156 49.722656 26.90625 52.492188 26.90625 C 55.261719 26.90625 57.507812 24.660156 57.507812 21.890625 C 57.507812 19.121094 55.261719 16.875 52.492188 16.875 Z M 52.492188 16.875 " clip-rule="nonzero"/></clipPath><clipPath id="00886aa432"><path d="M 15.371094 47.4375 L 25.398438 47.4375 L 25.398438 57.464844 L 15.371094 57.464844 Z M 15.371094 47.4375 " clip-rule="nonzero"/></clipPath><clipPath id="695be51d56"><path d="M 20.382812 47.4375 C 17.613281 47.4375 15.371094 49.679688 15.371094 52.449219 C 15.371094 55.21875 17.613281 57.464844 20.382812 57.464844 C 23.152344 57.464844 25.398438 55.21875 25.398438 52.449219 C 25.398438 49.679688 23.152344 47.4375 20.382812 47.4375 Z M 20.382812 47.4375 " clip-rule="nonzero"/></clipPath></defs><rect x="-7.5" width="90" fill="#ffffff" y="-7.5" height="89.999996" fill-opacity="1"/><rect x="-7.5" width="90" fill="#ffffff" y="-7.5" height="89.999996" fill-opacity="1"/><g clip-path="url(#a2932769d0)"><g clip-path="url(#ee67bd7b25)"><path stroke-linecap="butt" transform="matrix(0.75, 0, 0, 0.75, 8.502683, 10.345589)" fill="none" stroke-linejoin="miter" d="M 5.001632 -0.00245183 L 72.324549 -0.00245183 C 75.084966 -0.00245183 77.32455 2.237132 77.32455 4.997548 L 77.32455 67.409008 C 77.32455 70.169424 75.084966 72.403799 72.324549 72.403799 L 5.001632 72.403799 C 2.236007 72.403799 0.00163147 70.169424 0.00163147 67.409008 L 0.00163147 4.997548 C 0.00163147 2.237132 2.236007 -0.00245183 5.001632 -0.00245183 Z M 5.001632 -0.00245183 " stroke="#6e15a8" stroke-width="2" stroke-opacity="1" stroke-miterlimit="4"/></g></g><g clip-path="url(#647703c7a2)"><g clip-path="url(#ebbc42bccc)"><path fill="#6e15a8" d="M 47.476562 16.875 L 57.507812 16.875 L 57.507812 26.90625 L 47.476562 26.90625 Z M 47.476562 16.875 " fill-opacity="1" fill-rule="nonzero"/></g></g><g clip-path="url(#00886aa432)"><g clip-path="url(#695be51d56)"><path fill="#6e15a8" d="M 15.371094 47.4375 L 25.398438 47.4375 L 25.398438 57.464844 L 15.371094 57.464844 Z M 15.371094 47.4375 " fill-opacity="1" fill-rule="nonzero"/></g></g></svg>